<svg xmlns="http://www.w3.org/2000/svg" width="58.635" height="64" viewBox="0 0 58.635 64">
  <path id="Path_21" data-name="Path 21" d="M43.286,0,40.281,28.224,35.15,4.427,19.062,7.8l5.131,23.792L1.006,36.453,5.1,55.459,45.875,64,55.2,43.349,59.641,1.7ZM28.7,36.293a2.013,2.013,0,0,1,.859.176c.555.248,1.493.773,1.68,1.579a2.769,2.769,0,0,1-.832,2.891v.005a3.028,3.028,0,0,1-3.131.3c-1.176-.387-1.7-1.792-1.253-3.491.331-1.261,1.893-1.451,2.677-1.464Zm11.045,1.461a3.084,3.084,0,0,1,2.8,1.448,2.885,2.885,0,0,1-.325,3.048h-.005C41.6,43.3,40,43.437,38.419,42.677c-1.064-.515-1.059-1.824-.941-2.621a2.459,2.459,0,0,1,.515-1.192A2.613,2.613,0,0,1,39.742,37.755Z" transform="translate(-1.006)" fill="#ffedcb" stroke="#ffedcb"/>
</svg>
