<svg xmlns="http://www.w3.org/2000/svg" width="40" height="40" viewBox="0 0 40 40">
  <path id="Path_12" data-name="Path 12" d="M150.4,112H113.6a1.6,1.6,0,0,0-1.6,1.6v36.8a1.6,1.6,0,0,0,1.6,1.6h36.8a1.6,1.6,0,0,0,1.6-1.6V113.6A1.6,1.6,0,0,0,150.4,112Zm-4.62,11.675h-3.195c-2.505,0-2.99,1.19-2.99,2.94v3.855h5.98l-.78,6.035h-5.2V152H133.36V136.51h-5.215v-6.04h5.215v-4.45c0-5.165,3.155-7.98,7.765-7.98a42.2,42.2,0,0,1,4.66.24v5.4Z" transform="translate(-112 -112)" fill="#ffedcb" stroke="#000"/>
</svg>
