<svg xmlns="http://www.w3.org/2000/svg" width="40" height="39.999" viewBox="0 0 40 39.999">
  <path id="Path_13" data-name="Path 13" d="M132.365,125.6a6.669,6.669,0,1,0,6.669,6.669A6.684,6.684,0,0,0,132.365,125.6Zm20,6.669c0-2.762.025-5.5-.13-8.255-.155-3.2-.886-6.044-3.227-8.385s-5.183-3.072-8.385-3.227c-2.762-.155-5.5-.13-8.255-.13s-5.5-.025-8.255.13c-3.2.155-6.044.886-8.386,3.227s-3.072,5.183-3.227,8.385c-.155,2.762-.13,5.5-.13,8.255s-.025,5.5.13,8.255c.155,3.2.886,6.044,3.227,8.385s5.183,3.072,8.385,3.227c2.762.155,5.5.13,8.255.13s5.5.025,8.255-.13c3.2-.155,6.044-.886,8.385-3.227s3.072-5.183,3.227-8.385C152.4,137.769,152.368,135.032,152.368,132.27Zm-20,10.262a10.262,10.262,0,1,1,10.262-10.262A10.247,10.247,0,0,1,132.365,142.532Zm10.682-18.547a2.394,2.394,0,1,1,1.7-.7A2.394,2.394,0,0,1,143.047,123.984Z" transform="translate(-112.37 -112.27)" fill="#ffedcb" stroke="#000"/>
</svg>
