<svg xmlns="http://www.w3.org/2000/svg" width="55.774" height="56" viewBox="0 0 55.774 56">
  <path id="Path_22" data-name="Path 22" d="M26.059.541a3.211,3.211,0,0,1,3.565,0,77.367,77.367,0,0,1,7.9,5.689s.684.474.7-.327a12.523,12.523,0,0,1,.184-3.1,1.414,1.414,0,0,1,1.311-.91s3.1.154,5.07.418a1.923,1.923,0,0,1,1.659,1.7S47.715,12.46,48,15.5c0,0,.245,1.549,2.49,4.177,0,0,4.557,6.382,5.087,7.6,0,0,1.059,2.207-1.22,2.506,0,0-4.16.42-4.562.513a1.041,1.041,0,0,0-.91,1.129s-.219,14.691-1.3,21.747c0,0-.282,2.8-1.825,2.737,0,0-4.277-.138-5.271-.11,0,0-.427,0-.364-.574,0,0,2.179-22.907.7-34.487,0,0-.065-1.493-1.2-1.825,0,0-1.038-.42-2.032.912a36.34,36.34,0,0,0-6.767,20.674s-.117,3.647.439,4.557c0,0,.345.639,2.116.784l2.24.3s.411,0,.373.544c0,0-.509,6.72-.653,7.917a2.375,2.375,0,0,1-.166.793s-.082.229-.784.2c0,0-9.884-.07-11,0,0,0-.467,0-.565-.245s-.686-8.673-.667-9.868a.6.6,0,0,1,.348-.583,5.945,5.945,0,0,0,2.735-4.366,23.992,23.992,0,0,0,.056-3.841s.364-12.885.455-14.957c0,0,.072-.7-.84-.828a.849.849,0,0,0-1.02.63v.07c0,.075-.639,8.5-.52,11.856,0,0,.219,2.2-1.3,2.242,0,0-1.479.222-1.552-1.61,0,0,.11-8.265.474-12.348a.925.925,0,0,0-1.832-.175.152.152,0,0,0,0,.072s-.639,7.91-.52,12.085c0,0,.182,2.025-1.433,1.951,0,0-1.349.154-1.423-1.643,0,0,.366-11.317.467-12.19A.91.91,0,0,0,15.445,21h-.091a.912.912,0,0,0-.975.758.39.39,0,0,0,0,.082s-.6,13.534-.52,17.507c0,0-.054,4.086,2.963,5.745,0,0,.448.257.457.646,0,0,.338,7.177.646,9.494,0,0,.11.555-.383.555L9.948,56A1.563,1.563,0,0,1,8.4,54.523a170.05,170.05,0,0,1-1.4-22.935,1.167,1.167,0,0,0-.912-1.248s-3.885-.357-4.825-.593a1.615,1.615,0,0,1-.985-2.38A78.161,78.161,0,0,1,26.062.541Z" transform="translate(-0.049 0)" fill="#ffedcb" stroke="#000"/>
</svg>
