<svg xmlns="http://www.w3.org/2000/svg" width="40" height="39.999" viewBox="0 0 40 39.999">
  <path id="Path_8" data-name="Path 8" d="M138.135,106.32l-5.17-5.165a3.932,3.932,0,0,0-5.568,0l-5.563,5.563a3.932,3.932,0,0,0,0,5.568l4.068,4.068a19.349,19.349,0,0,1-9.544,9.558l-4.068-4.068a3.932,3.932,0,0,0-5.568,0l-5.568,5.558a3.938,3.938,0,0,0,0,5.573l5.16,5.16a6.38,6.38,0,0,0,4.5,1.864,5.967,5.967,0,0,0,1.029-.087,35.856,35.856,0,0,0,28.072-28.068A6.389,6.389,0,0,0,138.135,106.32Z" transform="translate(-100 -100)" fill="#dfb66b" stroke="#dfb66b"/>
</svg>
