<svg xmlns="http://www.w3.org/2000/svg" width="73" height="55.574" viewBox="0 0 73 55.574">
  <path id="Path_20" data-name="Path 20" d="M0,2.865v15.2a9.079,9.079,0,0,0,9.379,9.52,9.019,9.019,0,0,0,6.54-2.665v2.258H19.6V2.865H15.887V17.872c0,3.845-2.645,6.448-6.069,6.454-3.463-.007-6.074-2.537-6.074-6.454V2.865Zm22.394,0V27.178h3.537V24.952a9.1,9.1,0,0,0,6.441,2.665,9.259,9.259,0,1,0,0-18.511,9.026,9.026,0,0,0-6.409,2.664V2.865ZM52.463,9.118a9.223,9.223,0,1,0,.359,18.438,9.5,9.5,0,0,0,7.78-3.783l-2.584-1.879a6.235,6.235,0,0,1-5.2,2.611,6,6,0,0,1-6-5.035H61.482V18.318a8.857,8.857,0,0,0-9.015-9.2Zm18.746.2a4.849,4.849,0,0,0-4.185,2.329V9.465H63.487V27.178h3.571V17.106c0-2.744,1.7-4.516,4.036-4.516H72.6V9.325C72.12,9.329,71.63,9.323,71.21,9.321ZM52.341,12.193a5.609,5.609,0,0,1,5.577,4.52h-11A5.609,5.609,0,0,1,52.341,12.193Zm-20.254.017a6.149,6.149,0,1,1-4.3,1.826A6.148,6.148,0,0,1,32.087,12.21ZM0,33.652V57.9H17.405V53.742H4.7v-6H17.065v-4H4.7V37.8h12.7v-4.15ZM44.289,34.9v5.129h-3.5V44.1H44.3v9.56c0,2.411,1.737,4.322,4.868,4.322h5l-.019-4.07H50.671c-1.059,0-1.738-.459-1.738-1.411v-8.42h5.209v-4.05h-5.19V34.9ZM28.176,39.544a9.439,9.439,0,1,0,.213,18.874,9.1,9.1,0,0,0,5.816-2.024v1.618h4.616V40.027h-4.59v1.6a9.139,9.139,0,0,0-5.842-2.079c-.074,0-.15,0-.213,0Zm35.8.023c-4.823,0-8.213,1.958-8.213,5.735,0,2.618,1.865,4.323,5.889,5.156l4.4,1c1.732.333,2.2.786,2.2,1.492,0,1.126-1.332,1.832-3.431,1.832-2.664,0-4.19-.58-4.782-2.578H55.38c.666,3.743,3.517,6.235,9.272,6.235h.007C69.988,58.438,73,55.947,73,52.5c0-2.451-1.778-4.284-5.5-5.07l-3.937-.792c-2.285-.413-3.005-.833-3.005-1.659,0-1.086,1.1-1.751,3.131-1.751,2.2,0,3.81.586,4.277,2.577H72.58c-.26-3.737-3.011-6.235-8.6-6.235ZM28.8,43.37a5.549,5.549,0,0,1,5.5,5.615,5.476,5.476,0,0,1-5.549,5.483,5.549,5.549,0,0,1,.053-11.1Z" transform="translate(0 -2.865)" fill="#ffedcb" stroke="#dfb66b"/>
</svg>
